<svg xmlns="http://www.w3.org/2000/svg" version="1.1" xmlns:xlink="http://www.w3.org/1999/xlink" xmlns:svgjs="http://svgjs.dev/svgjs" width="2000" height="1247" viewBox="0 0 2000 1247"><g transform="matrix(1,0,0,1,-1.2121212121212466,0.504858299595071)"><svg viewBox="0 0 396 247" data-background-color="#ffffff" preserveAspectRatio="xMidYMid meet" height="1247" width="2000" xmlns="http://www.w3.org/2000/svg" xmlns:xlink="http://www.w3.org/1999/xlink"><g id="tight-bounds" transform="matrix(1,0,0,1,0.2400000000000091,-0.09999999999999432)"><svg viewBox="0 0 395.52 247.2" height="247.2" width="395.52"><g><svg></svg></g><g><svg viewBox="0 0 395.52 247.2" height="247.2" width="395.52"><g transform="matrix(1,0,0,1,75.54432000000001,82.34999501690005)"><svg viewBox="0 0 244.43135999999996 82.50000996619988" height="82.50000996619988" width="244.43135999999996"><g><svg viewBox="0 0 244.43135999999996 82.50000996619988" height="82.50000996619988" width="244.43135999999996"><g><svg viewBox="0 0 244.43135999999996 82.50000996619988" height="82.50000996619988" width="244.43135999999996"><g><svg viewBox="0 0 244.43135999999996 82.50000996619988" height="82.50000996619988" width="244.43135999999996"><g id="textblocktransform"><svg viewBox="0 0 244.43135999999996 82.50000996619988" height="82.50000996619988" width="244.43135999999996" id="textblock"><g><svg viewBox="0 0 244.43135999999996 82.50000996619988" height="82.50000996619988" width="244.43135999999996"><g transform="matrix(1,0,0,1,0,0)"><svg width="244.43135999999996" viewBox="-2.65 -34.95 103.55000000000001 34.95" height="82.50000996619988" data-palette-color="#ee3e38"><path d="M8.1 0L-2.65 0-2.65-2.15 2.15-2.15 12.75-17.95 1.6-34.95 8.9-34.95 16.7-23.15 16.95-23.15 24.75-34.95 32.05-34.95 20.9-17.95 31.45-2.15 36.3-2.15 36.3 0 25.55 0 16.95-13.15 16.7-13.15 8.1 0ZM33.65-2.15L46.25-2.15 46.25-13.8 33.25-34.95 39.7-34.95 49.25-19.05 58.8-34.95 65.25-34.95 52.25-13.8 52.25-2.15 64.85-2.15 64.85 0 33.65 0 33.65-2.15ZM62.34-2.15L67.19-2.15 67.19-4.55 87.55-29.4 87.55-29.55 67.84-29.55 67.84-34.95 95.75-34.95 95.75-30.35 75.44-5.6 75.44-5.45 96.05-5.45 96.05-2.15 100.9-2.15 100.9 0 62.34 0 62.34-2.15Z" opacity="1" transform="matrix(1,0,0,1,0,0)" fill="#ee3e38" class="undefined-text-0" data-fill-palette-color="primary" id="text-0"></path></svg></g></svg></g></svg></g></svg></g></svg></g></svg></g></svg></g><path d="M214.534 76.35L214.534 21.686 10.705 21.686 10.705 225.514 214.534 225.514 214.534 170.85 207.094 170.85 207.094 218.075 18.145 218.075 18.145 29.125 207.094 29.125 207.094 76.35Z" fill="#ee3e38" stroke="transparent" data-fill-palette-color="primary"></path></svg></g><defs></defs></svg><rect width="395.52" height="247.2" fill="none" stroke="none" visibility="hidden"></rect></g></svg></g></svg>