<svg xmlns="http://www.w3.org/2000/svg" version="1.1" xmlns:xlink="http://www.w3.org/1999/xlink" xmlns:svgjs="http://svgjs.dev/svgjs" width="2000" height="1247" viewBox="0 0 2000 1247"><g transform="matrix(1,0,0,1,-1.2121212121212466,0.504858299595071)"><svg viewBox="0 0 396 247" data-background-color="#ffffff" preserveAspectRatio="xMidYMid meet" height="1247" width="2000" xmlns="http://www.w3.org/2000/svg" xmlns:xlink="http://www.w3.org/1999/xlink"><g id="tight-bounds" transform="matrix(1,0,0,1,0.2400000000000091,-0.09999999999999432)"><svg viewBox="0 0 395.52 247.2" height="247.2" width="395.52"><g><svg></svg></g><g><svg viewBox="0 0 395.52 247.2" height="247.2" width="395.52"><g transform="matrix(1,0,0,1,75.54432000000001,79.13572461769115)"><svg viewBox="0 0 244.43135999999996 88.9285507646177" height="88.9285507646177" width="244.43135999999996"><g><svg viewBox="0 0 244.43135999999996 88.9285507646177" height="88.9285507646177" width="244.43135999999996"><g><svg viewBox="0 0 244.43135999999996 88.9285507646177" height="88.9285507646177" width="244.43135999999996"><g><svg viewBox="0 0 244.43135999999996 88.9285507646177" height="88.9285507646177" width="244.43135999999996"><g id="textblocktransform"><svg viewBox="0 0 244.43135999999996 88.9285507646177" height="88.9285507646177" width="244.43135999999996" id="textblock"><g><svg viewBox="0 0 244.43135999999996 88.9285507646177" height="88.9285507646177" width="244.43135999999996"><g transform="matrix(1,0,0,1,0,0)"><svg width="244.43135999999996" viewBox="2.4000000953674316 -35.70000076293945 100.04999542236328 36.400001525878906" height="88.9285507646177" data-palette-color="#ff0000"><path d="M7.4 0L2.4 0 7.1-35 11.15-35 20.35-17.65 29.45-35 33.55-35 38.2 0 33.2 0 29.65-28.55 30.9-28.35 20.4-8.3 9.7-28.35 10.95-28.55 7.4 0ZM59.95 0.7L59.95 0.7Q54.85 0.7 50.86-1.54 46.87-3.78 44.59-7.86 42.3-11.95 42.3-17.5L42.3-17.5Q42.3-23.05 44.61-27.14 46.92-31.23 50.96-33.46 55-35.7 60.15-35.7L60.15-35.7Q62.82-35.7 65.25-35.13 67.67-34.55 69.5-33.65L69.5-33.65 69-29.25Q67.12-30.15 64.87-30.78 62.62-31.4 60.1-31.4L60.1-31.4Q55.97-31.4 53.17-29.54 50.37-27.68 48.94-24.53 47.5-21.38 47.5-17.5L47.5-17.5Q47.5-13.63 48.91-10.48 50.32-7.33 53.11-5.46 55.9-3.6 60-3.6L60-3.6Q62.6-3.6 64.81-4.16 67.02-4.73 69-5.7L69-5.7 69.5-1.3Q67.62-0.45 65.27 0.13 62.92 0.7 59.95 0.7ZM79.9 0L75.15 0 75.15-35 79.9-35 79.9-20.55 97.7-20.55 97.7-35 102.45-35 102.45 0 97.7 0 97.7-16.05 79.9-16.05 79.9 0Z" opacity="1" transform="matrix(1,0,0,1,0,0)" fill="#ff0000" class="undefined-text-0" data-fill-palette-color="primary" id="text-0"></path></svg></g></svg></g></svg></g></svg></g></svg></g></svg></g></svg></g><path d="M218.929 73.136L218.929 19.631 10.991 19.631 10.991 227.569 218.929 227.569 218.929 174.064 210.909 174.064 210.909 219.55 19.01 219.55 19.01 27.65 210.909 27.65 210.909 73.136Z" fill="#ff0000" stroke="transparent" data-fill-palette-color="primary"></path></svg></g><defs></defs></svg><rect width="395.52" height="247.2" fill="none" stroke="none" visibility="hidden"></rect></g></svg></g></svg>